<?xml version="1.0" encoding="utf-8"?>
<!-- Generator: Adobe Illustrator 19.0.0, SVG Export Plug-In . SVG Version: 6.00 Build 0)  -->
<svg version="1.1" id="Layer_1" xmlns="http://www.w3.org/2000/svg" xmlns:xlink="http://www.w3.org/1999/xlink" x="0px" y="0px"
	 viewBox="-169 -10 100 100" style="enable-background:new -169 -10 100 100;" xml:space="preserve">
<style type="text/css">
	.st0{stroke:#FFFFFF;stroke-width:3;stroke-miterlimit:10;}
</style>
<path class="st0" d="M-75.5-7l-42.3,42.4c-0.8,0.9-2.2,0.9-3.1,0L-163.3-7c-0.8-0.8-2.2-0.8-3.1,0l0,0c-0.8,0.8-0.8,2.2,0,3.1
	l42.3,42.4c0.8,0.8,0.8,2.2,0,3.1L-166.4,84c-0.8,0.9-0.8,2.2,0,3.1l0,0c0.8,0.8,2.2,0.8,3.1,0l42.4-42.4c0.9-0.9,2.2-0.8,3.1,0
	l42.3,42.4c0.8,0.8,2.2,0.9,3,0l0.1-0.1c0.9-0.8,0.9-2.3,0-3.1l-42.4-42.4c-0.8-0.8-0.8-2.2,0-3.1L-72.4-4c0.9-0.9,0.8-2.3,0-3.1
	l-0.1-0.1C-73.3-7.9-74.6-7.9-75.5-7z"/>
</svg>
