<?xml version="1.0" encoding="utf-8"?>
<!-- Generator: Adobe Illustrator 19.0.0, SVG Export Plug-In . SVG Version: 6.00 Build 0)  -->
<svg version="1.1" id="Layer_1" xmlns="http://www.w3.org/2000/svg" xmlns:xlink="http://www.w3.org/1999/xlink" x="0px" y="0px"
	 viewBox="-658 659.3 100 100" style="enable-background:new -658 659.3 100 100;" xml:space="preserve">
<style type="text/css">
	.st0{fill:#222222;stroke:#000000;stroke-width:3;stroke-miterlimit:10;}
</style>
<path class="st0" d="M-564.2,662.3l-42.3,42.4c-0.8,0.9-2.2,0.9-3.1,0l-42.4-42.4c-0.8-0.8-2.2-0.8-3.1,0l0,0
	c-0.8,0.8-0.8,2.2,0,3.1l42.3,42.4c0.8,0.8,0.8,2.2,0,3.1l-42.3,42.4c-0.8,0.9-0.8,2.2,0,3.1v0c0.8,0.8,2.2,0.8,3.1,0l42.4-42.4
	c0.9-0.9,2.2-0.8,3.1,0l42.3,42.4c0.8,0.8,2.2,0.9,3,0l0.1-0.1c0.9-0.8,0.9-2.3,0-3.1l-42.4-42.4c-0.8-0.8-0.8-2.2,0-3.1l42.4-42.4
	c0.9-0.9,0.8-2.3,0-3.1l-0.1-0.1C-562,661.4-563.3,661.4-564.2,662.3z"/>
</svg>
