<?xml version="1.0" encoding="utf-8"?>
<!-- Generator: Adobe Illustrator 19.0.0, SVG Export Plug-In . SVG Version: 6.00 Build 0)  -->
<svg version="1.1" id="Calque_1" xmlns="http://www.w3.org/2000/svg" xmlns:xlink="http://www.w3.org/1999/xlink" x="0px" y="0px"
	 viewBox="0 0 128 128" style="enable-background:new 0 0 128 128;" xml:space="preserve">
<style type="text/css">
	.st0{fill:#FBB03C;}
	.st1{fill:#F79421;}
</style>
<g id="XMLID_1_">
	<g id="XMLID_64_">
		<g id="XMLID_68_">
			<path id="XMLID_70_" class="st0" d="M22.2,69.9l-6.9,13.4l14.1,5.4l0.1,15.1l15-1.7l7.1,13.3l12.5-8.5l12.5,8.5l7.1-13.3l15,1.7
				l0.1-15.1l14.1-5.4L106,69.9l9.9-11.3L103.3,50l3.5-14.7l-15-1.9l-3.7-14.6L74,24L63.9,12.8L53.9,24l-14.1-5.3l-3.7,14.6l-15,1.9
				L24.6,50l-12.4,8.6L22.2,69.9z M25.5,64.1c0-21.2,17.2-38.5,38.5-38.5s38.5,17.2,38.5,38.5c0,21.2-17.2,38.5-38.5,38.5
				S25.5,85.4,25.5,64.1z"/>
			<circle id="XMLID_69_" class="st0" cx="63.9" cy="64.1" r="33.3"/>
		</g>
		<g id="XMLID_65_">
			<path id="XMLID_67_" class="st1" d="M102.4,64.1c0-21.2-17.2-38.5-38.5-38.5V12.8L74,24l14.1-5.3l3.7,14.6l15,1.9L103.3,50
				l12.4,8.6l-9.9,11.3l6.9,13.4l-14.1,5.4l-0.1,15.1l-15-1.7l-7.1,13.3l-12.5-8.5v-4.4C85.2,102.6,102.4,85.4,102.4,64.1z"/>
			<path id="XMLID_66_" class="st1" d="M97.2,64.1c0,18.4-14.9,33.3-33.3,33.3V30.9C82.3,30.9,97.2,45.7,97.2,64.1z"/>
		</g>
	</g>
</g>
</svg>
