<?xml version="1.0" encoding="utf-8"?>
<!-- Generator: Adobe Illustrator 19.0.0, SVG Export Plug-In . SVG Version: 6.00 Build 0)  -->
<svg version="1.1" id="Layer_1" xmlns="http://www.w3.org/2000/svg" xmlns:xlink="http://www.w3.org/1999/xlink" x="0px" y="0px"
	 viewBox="-207 29 24 24" style="enable-background:new -207 29 24 24;" xml:space="preserve">
<style type="text/css">
	.st0{fill:#FFFFFF;}
</style>
<g>
	<g>
		<g>
			<path class="st0" d="M-201.2,35.1c0.9,0,1.6-0.7,1.6-1.6c0-1.1-1.6-2.9-1.6-2.9s-1.6,1.7-1.6,2.9
				C-202.8,34.4-202.1,35.1-201.2,35.1z"/>
			<path class="st0" d="M-204,32.4c0-0.7-1-1.7-1-1.7s-1,1.1-1,1.7c0,0.5,0.4,1,1,1C-204.4,33.4-204,32.9-204,32.4z"/>
			<path class="st0" d="M-194.1,31.9v-0.1c0-0.4-0.3-0.7-0.8-0.7c-0.4,0-0.8,0.3-0.8,0.7v0.1c-1.2,0.1-2.3,0.4-3.3,0.9
				c0.1,0.3,0.1,0.5,0.1,0.8c0,1.3-1.1,2.4-2.4,2.4c-0.5,0-1-0.2-1.4-0.4c-1.5,1.7-2.3,4-2.4,6.4c0-1.4,1.1-2.5,2.5-2.5
				c1.4,0,2.5,1.1,2.5,2.5c0-1.4,1.1-2.5,2.5-2.5c0.5,0,1,0.2,1.4,0.4V50c0,1.6,1.3,2.9,2.9,3h0.1l0,0c1.6,0,2.9-1.4,2.9-3
				c0-0.6-0.5-1.1-1.1-1.1c-0.6,0-1.1,0.5-1.1,1.1c0,0.4-0.3,0.8-0.8,0.8c-0.4,0-0.8-0.4-0.8-0.8V40c0.4-0.3,0.9-0.5,1.5-0.5
				c1.4,0,2.5,1.1,2.5,2.5c0-1.4,1.1-2.5,2.5-2.5c1.4,0,2.5,1.1,2.5,2.5l0,0C-184.7,36.7-188.8,32.3-194.1,31.9z"/>
		</g>
	</g>
</g>
</svg>
