<?xml version="1.0" encoding="utf-8"?>
<!-- Generator: Adobe Illustrator 19.0.0, SVG Export Plug-In . SVG Version: 6.00 Build 0)  -->
<svg version="1.1" id="Layer_1" xmlns="http://www.w3.org/2000/svg" xmlns:xlink="http://www.w3.org/1999/xlink" x="0px" y="0px"
	 viewBox="4 5 24 24" style="enable-background:new 4 5 24 24;" xml:space="preserve">
<style type="text/css">
	.st0{fill:#FFFFFF;}
</style>
<g>
	<g>
		<path class="st0" d="M7.3,17.8c-0.1-1.2,0-2.3,0.3-3.4c1-3.5,4.3-6.1,8.1-6.2V5.9c0-0.1,0.2-0.2,0.3-0.1l4.8,3.5
			c0.1,0.1,0.1,0.2,0,0.2L16.1,13c-0.1,0.1-0.3,0-0.3-0.1v-2.3c-2.5,0-4.7,1.6-5.6,3.8c-0.4,0.8-0.5,1.8-0.5,2.7
			c0.1,1.3,0.6,2.5,1.4,3.5c0.4,0.5,0.3,1.3-0.2,1.7c-0.5,0.4-1.2,0.3-1.6-0.2C8.2,20.9,7.5,19.5,7.3,17.8z M21,13.4
			c0.8,1,1.3,2.2,1.4,3.5c0.1,1-0.1,1.9-0.5,2.7c-0.9,2.2-3.1,3.8-5.6,3.8v-2.3c0-0.1-0.2-0.2-0.3-0.1l-4.7,3.5
			c-0.1,0.1-0.1,0.2,0,0.2l4.7,3.6c0.1,0.1,0.3,0,0.3-0.1v-2.3c3.9,0,7.1-2.6,8.1-6.2c0.3-1.1,0.4-2.2,0.3-3.4
			c-0.2-1.6-0.8-3.1-1.8-4.3c-0.4-0.5-1.1-0.6-1.6-0.2C20.7,12,20.6,12.9,21,13.4z"/>
	</g>
</g>
</svg>
