<?xml version="1.0" encoding="utf-8"?>
<!-- Generator: Adobe Illustrator 19.0.0, SVG Export Plug-In . SVG Version: 6.00 Build 0)  -->
<svg version="1.1" id="Layer_1" xmlns="http://www.w3.org/2000/svg" xmlns:xlink="http://www.w3.org/1999/xlink" x="0px" y="0px"
	 viewBox="-207 29 24 24" style="enable-background:new -207 29 24 24;" xml:space="preserve">
<style type="text/css">
	.st0{fill:#FFFFFF;}
</style>
<g>
	<g>
		<path class="st0" d="M-194.2,45.2v-7.1h-1.6v7.1c-0.9,0.3-1.6,1.2-1.6,2.2c0,1.3,1,2.3,2.3,2.3c1.3,0,2.3-1,2.3-2.3
			C-192.7,46.4-193.3,45.5-194.2,45.2z M-195,48.2c-0.4,0-0.8-0.3-0.8-0.8c0-0.4,0.3-0.8,0.8-0.8c0.4,0,0.8,0.3,0.8,0.8
			C-194.2,47.8-194.6,48.2-195,48.2z"/>
	</g>
</g>
<g>
	<g>
		<path class="st0" d="M-191.6,43.8V32.4c0-1.9-1.5-3.4-3.4-3.4s-3.4,1.5-3.4,3.4v11.4c-1,0.9-1.6,2.2-1.6,3.6
			c0,2.7,2.2,4.9,4.9,4.9c2.7,0,4.9-2.2,4.9-4.9C-190.1,46-190.6,44.7-191.6,43.8z M-195,50.8c-1.9,0-3.4-1.5-3.4-3.4
			c0-1,0.5-2,1.3-2.6l0.3-0.2V32.4c0-1,0.8-1.8,1.8-1.8s1.8,0.8,1.8,1.8v12.2l0.3,0.2c0.8,0.6,1.3,1.6,1.3,2.6
			C-191.6,49.3-193.1,50.8-195,50.8z"/>
	</g>
</g>
</svg>
