<?xml version="1.0" encoding="utf-8"?>
<!-- Generator: Adobe Illustrator 19.0.0, SVG Export Plug-In . SVG Version: 6.00 Build 0)  -->
<svg version="1.1" id="Layer_1" xmlns="http://www.w3.org/2000/svg" xmlns:xlink="http://www.w3.org/1999/xlink" x="0px" y="0px"
	 viewBox="-1 14 24 24" style="enable-background:new -1 14 24 24;" xml:space="preserve">
<style type="text/css">
	.st0{fill:#555249;}
</style>
<g>
	<g>
		<path class="st0" d="M11.8,30.2v-7.1h-1.6v7.1c-0.9,0.3-1.6,1.2-1.6,2.2c0,1.3,1,2.3,2.3,2.3c1.3,0,2.3-1,2.3-2.3
			C13.3,31.4,12.7,30.5,11.8,30.2z M11,33.2c-0.4,0-0.8-0.3-0.8-0.8c0-0.4,0.3-0.8,0.8-0.8c0.4,0,0.8,0.3,0.8,0.8
			C11.8,32.8,11.4,33.2,11,33.2z"/>
	</g>
</g>
<g>
	<g>
		<path class="st0" d="M14.4,28.8V17.4c0-1.9-1.5-3.4-3.4-3.4s-3.4,1.5-3.4,3.4v11.4c-1,0.9-1.6,2.2-1.6,3.6c0,2.7,2.2,4.9,4.9,4.9
			s4.9-2.2,4.9-4.9C15.9,31,15.4,29.7,14.4,28.8z M11,35.8c-1.9,0-3.4-1.5-3.4-3.4c0-1,0.5-2,1.3-2.6l0.3-0.2V17.4
			c0-1,0.8-1.8,1.8-1.8s1.8,0.8,1.8,1.8v12.2l0.3,0.2c0.8,0.6,1.3,1.6,1.3,2.6C14.4,34.3,12.9,35.8,11,35.8z"/>
	</g>
</g>
</svg>
