<?xml version="1.0" encoding="utf-8"?>
<!-- Generator: Adobe Illustrator 19.0.0, SVG Export Plug-In . SVG Version: 6.00 Build 0)  -->
<svg version="1.1" id="Layer_1" xmlns="http://www.w3.org/2000/svg" xmlns:xlink="http://www.w3.org/1999/xlink" x="0px" y="0px"
	 viewBox="-207 29 24 24" style="enable-background:new -207 29 24 24;" xml:space="preserve">
<style type="text/css">
	.st0{fill:#FFFFFF;}
</style>
<g>
	<g>
		<path class="st0" d="M-194.1,33.5c-1.4,0-2.6,1.2-2.6,2.6h1.6c0-0.6,0.5-1,1-1c0.6,0,1,0.5,1,1c0,0.6-0.5,1-1,1H-205v1.6h10.9
			c1.4,0,2.6-1.2,2.6-2.6C-191.5,34.6-192.6,33.5-194.1,33.5z"/>
	</g>
</g>
<g>
	<g>
		<path class="st0" d="M-187.6,34c-1.6,0-2.8,1.3-2.8,2.8c0,1.1,0.9,2.1,2.1,2.1c1.1,0,2.1-0.9,2.1-2.1h-1.6c0,0.3-0.2,0.5-0.5,0.5
			s-0.5-0.2-0.5-0.5c0-0.7,0.6-1.3,1.3-1.3c1.1,0,2.1,0.9,2.1,2.1c-0.1,1.1-1.1,2.1-2.2,2.1H-207v1.6h19.4c2,0,3.6-1.6,3.6-3.6
			S-185.6,34-187.6,34z"/>
	</g>
</g>
<g>
	<g>
		<path class="st0" d="M-191.5,42.3H-205v1.6h13.5c0.7,0,1.3,0.6,1.3,1.3c0,0.7-0.6,1.3-1.3,1.3s-1.3-0.6-1.3-1.3h-1.6
			c0,1.6,1.3,2.8,2.8,2.8s2.8-1.3,2.8-2.8C-188.6,43.5-189.9,42.3-191.5,42.3z"/>
	</g>
</g>
</svg>
