<?xml version="1.0" encoding="utf-8"?>
<!-- Generator: Adobe Illustrator 19.0.0, SVG Export Plug-In . SVG Version: 6.00 Build 0)  -->
<svg version="1.1" id="Capa_1" xmlns="http://www.w3.org/2000/svg" xmlns:xlink="http://www.w3.org/1999/xlink" x="0px" y="0px"
	 viewBox="-110 56.8 488.2 488.2" style="enable-background:new -110 56.8 488.2 488.2;" xml:space="preserve">
<style type="text/css">
	.st0{fill:#999898;}
</style>
<g>
	<g>
		<path class="st0" d="M216.9,123.9c6.7-14.5,13.5-28.9,20.6-44.2C158.9,46.6,82.3,48.2,9.1,91.8C-61.7,133.9-100.1,197.9-110,280.3
			c16.8,1.5,32.7,2.9,48.6,4.2C-52.7,160,84.9,64.5,216.9,123.9z"/>
		<path class="st0" d="M374.7,259.2c-15.8,2.7-31.5,5.5-47.9,8.3c8.5,57-3.3,108.4-38.1,153.4c-34.6,44.8-81,69.4-137.7,75.7
			c1.4,16.1,2.8,31.8,4.1,47.5C273.8,539.9,401,420.7,374.7,259.2z"/>
		<path class="st0" d="M-62.1,318.8c-15.1,1.3-30.8,2.7-46.5,4c3.7,99.5,90.5,211.5,221.4,222.1c1.4-16.1,2.8-31.9,4.1-47.2
			C14.5,480.6-44.8,421.3-62.1,318.8z"/>
		<path class="st0" d="M288.9,182.3c12.2,15.8,21.6,33.2,28.9,52.4c15.2-5.5,30.2-11,45.9-16.7c-18.1-48.2-47.6-86.6-89.5-116.7
			c-9.3,13.3-18.5,26.3-28,39.9C262.4,153.1,276.8,166.6,288.9,182.3z"/>
		<path class="st0" d="M157.2,440.9v-19.1c16.3-3.1,32.1-9.6,46.3-19.4l13.6,13.6c5.1,5,13.2,5,18.3,0l14.1-14.1
			c5-5.1,5-13.2,0-18.3l-13.8-13.8c9.6-14.2,15.9-30,18.9-46.2h19.6c7.1,0,12.9-5.8,12.9-12.9v-20c0-7.1-5.8-12.9-12.9-12.9h-19.7
			c-3.1-16.2-9.5-31.8-19.1-45.9l14-14c5-5.1,5-13.2,0-18.3l-14.3-14.2c-5.1-5-13.2-5-18.3,0l-14,14c-14.1-9.6-29.8-16-46-19.1
			v-19.7c0-7.1-5.8-12.9-12.9-12.9h-20c-7.1,0-12.9,5.8-12.9,12.9v19.6c-16.2,3-32,9.4-46.2,19l-13.7-13.6c-5.1-5-13.2-5-18.3,0
			l-14.1,14.2c-5,5.1-5,13.2,0,18.3l13.6,13.6c-9.8,14.2-16.2,30-19.3,46.3H-6.1c-7.1,0-12.9,5.8-12.9,12.9v20
			c0,7.1,5.8,12.9,12.9,12.9h19c3.1,16.4,9.5,32.3,19.2,46.5l-13.2,13.5c-5,5.1-5,13.2,0,18.3L33,416.2c5.1,5,13.2,5,18.3,0
			l13.4-13.4c14.3,9.7,30.2,16.1,46.6,19.2v19c0,7.1,5.8,12.9,12.9,12.9h20C151.4,453.8,157.2,448,157.2,440.9z M87,348
			c-26-26-26.1-68.2-0.1-94.2s68.2-26.1,94.2-0.1s26.1,68.2,0.1,94.2C155.3,373.9,113.1,374,87,348z"/>
	</g>
</g>
</svg>
