<?xml version="1.0" encoding="UTF-8"?>
<!-- Generator: Adobe Illustrator 17.0.0, SVG Export Plug-In . SVG Version: 6.00 Build 0)  -->
<!DOCTYPE svg PUBLIC "-//W3C//DTD SVG 1.1//EN" "http://www.w3.org/Graphics/SVG/1.1/DTD/svg11.dtd">
<svg version="1.1" id="Capa_1" xmlns="http://www.w3.org/2000/svg" xmlns:xlink="http://www.w3.org/1999/xlink" x="0px" y="0px" width="50px" height="50px" viewBox="0 0 50 50" enable-background="new 0 0 50 50" xml:space="preserve">
<g>
	<path fill="#FFFFFF" d="M20.39,23.156c0.637,0,1.175-0.251,1.59-0.726c0.653-0.741,0.94-1.961,0.77-3.256   c-0.305-2.316-1.957-4.239-3.683-4.29h-0.069c-0.612,0-1.155,0.249-1.571,0.724c-0.645,0.734-0.914,1.895-0.745,3.186   c0.303,2.312,1.99,4.31,3.681,4.362H20.39z"/>
	<path fill="#FFFFFF" d="M22.275,30.13c-0.17-0.114-0.346-0.235-0.528-0.36c-0.532-0.164-1.098-0.249-1.675-0.257h-0.073   c-2.658,0-4.992,1.612-4.992,3.449c0,1.996,1.997,3.563,4.548,3.563c3.364,0,5.07-1.16,5.07-3.447c0-0.218-0.025-0.442-0.077-0.664   C24.32,31.523,23.505,30.969,22.275,30.13z"/>
	<path fill="#FFFFFF" d="M25.034,0.063c-13.774,0-24.938,11.163-24.938,24.936s11.165,24.938,24.938,24.938   c13.771,0,24.936-11.165,24.936-24.938S38.804,0.063,25.034,0.063z M22.765,38.568c-0.994,0.287-2.067,0.433-3.194,0.433   c-1.254,0-2.461-0.145-3.585-0.429c-2.177-0.548-3.787-1.59-4.537-2.932c-0.324-0.581-0.488-1.199-0.488-1.839   c0-0.66,0.158-1.329,0.469-1.992c1.195-2.542,4.337-4.25,7.82-4.25c0.035,0,0.069,0,0.101,0c-0.283-0.498-0.421-1.015-0.421-1.557   c0-0.271,0.035-0.546,0.106-0.824c-3.652-0.085-6.386-2.76-6.386-6.286c0-2.492,1.99-4.917,4.837-5.898   c0.853-0.295,1.721-0.445,2.575-0.445h7.811c0.267,0,0.5,0.172,0.583,0.425c0.085,0.255-0.008,0.532-0.224,0.689l-1.747,1.264   c-0.105,0.075-0.232,0.116-0.362,0.116h-0.625c0.809,0.967,1.282,2.345,1.282,3.897c0,1.712-0.866,3.331-2.441,4.563   c-1.216,0.948-1.266,1.206-1.266,1.751c0.016,0.299,0.865,1.268,1.798,1.928c2.179,1.542,2.99,3.052,2.99,5.578   C27.863,35.389,25.861,37.67,22.765,38.568z M40.408,25.169c0,0.338-0.276,0.613-0.615,0.613h-4.439v4.441   c0,0.34-0.274,0.615-0.615,0.615h-1.264c-0.34,0-0.615-0.274-0.615-0.615v-4.441H28.42c-0.336,0-0.613-0.274-0.613-0.613v-1.266   c0-0.338,0.276-0.615,0.613-0.615h4.441V18.85c0-0.34,0.274-0.615,0.615-0.615h1.264c0.34,0,0.615,0.274,0.615,0.615v4.439h4.439   c0.338,0,0.615,0.276,0.615,0.615v1.266H40.408z"/>
</g>
</svg>