<?xml version="1.0" encoding="utf-8"?>
<!-- Generator: Adobe Illustrator 19.0.0, SVG Export Plug-In . SVG Version: 6.00 Build 0)  -->
<svg version="1.1" id="Calque_1" xmlns="http://www.w3.org/2000/svg" xmlns:xlink="http://www.w3.org/1999/xlink" x="0px" y="0px"
	 viewBox="-98 44.9 512 512" style="enable-background:new -98 44.9 512 512;" xml:space="preserve">
<style type="text/css">
	.st0{fill:#999898;}
</style>
<path class="st0" d="M45.9,349.6c0-45.6,26.8-84.9,65.5-103.3C-11.7,268.6-92.1,359-92.1,359c76.7,63.4,149.2,91.2,214,98.3
	C77.6,441.5,45.9,399.3,45.9,349.6L45.9,349.6z"/>
<path class="st0" d="M412.7,349.9C338.5,283.8,267.8,254,204,245.8c41.5,17.2,70.7,58,70.7,105.7c0,48.3-30,89.5-72.3,106.3
	C330.1,439.4,412.7,349.9,412.7,349.9L412.7,349.9z"/>
<path class="st0" d="M218.7,290.8c0.2,1.4,0.4,2.7,0.4,4.2c0,15-12.1,27.1-27.1,27.1c-14.9,0-27.1-12.1-27.1-27.1
	c0-11.2,6.8-20.7,16.4-24.9c-6.7-1.7-13.8-2.7-21-2.7c-46.7,0-84.5,37.8-84.5,84.5s37.8,84.5,84.5,84.5s84.5-37.9,84.5-84.5
	C244.8,327.8,234.7,306.1,218.7,290.8L218.7,290.8z"/>
<path class="st0" d="M258.5,238.9l26.7-54.5l27.6,13.5l-26.7,54.5L258.5,238.9z"/>
<path class="st0" d="M32,251.5L8.2,200.2l27.9-12.9l23.8,51.3L32,251.5L32,251.5z"/>
<path class="st0" d="M135.7,228.1l0.9-72.6l30.7,0.4l-0.9,72.6L135.7,228.1L135.7,228.1z"/>
</svg>
