<?xml version="1.0" encoding="utf-8"?>
<!-- Generator: Adobe Illustrator 19.0.0, SVG Export Plug-In . SVG Version: 6.00 Build 0)  -->
<svg version="1.1" id="Capa_1" xmlns="http://www.w3.org/2000/svg" xmlns:xlink="http://www.w3.org/1999/xlink" x="0px" y="0px"
	 viewBox="-329 275.9 50 50" style="enable-background:new -329 275.9 50 50;" xml:space="preserve">
<style type="text/css">
	.st0{fill:#555249;}
</style>
<g>
	<path class="st0" d="M-308.6,299.1c0.6,0,1.2-0.3,1.6-0.7c0.7-0.7,0.9-2,0.8-3.3c-0.3-2.3-2-4.2-3.7-4.3h-0.1
		c-0.6,0-1.2,0.2-1.6,0.7c-0.6,0.7-0.9,1.9-0.7,3.2C-312,297-310.3,299-308.6,299.1L-308.6,299.1z"/>
	<path class="st0" d="M-306.7,306.1c-0.2-0.1-0.3-0.2-0.5-0.4c-0.5-0.2-1.1-0.2-1.7-0.3h-0.1c-2.7,0-5,1.6-5,3.4c0,2,2,3.6,4.5,3.6
		c3.4,0,5.1-1.2,5.1-3.4c0-0.2,0-0.4-0.1-0.7C-304.7,307.5-305.5,306.9-306.7,306.1z"/>
	<path class="st0" d="M-304,276c-13.8,0-24.9,11.2-24.9,24.9s11.2,24.9,24.9,24.9c13.8,0,24.9-11.2,24.9-24.9
		C-279,287.2-290.2,276-304,276z M-306.2,314.5c-1,0.3-2.1,0.4-3.2,0.4c-1.3,0-2.5-0.1-3.6-0.4c-2.2-0.5-3.8-1.6-4.5-2.9
		c-0.3-0.6-0.5-1.2-0.5-1.8c0-0.7,0.2-1.3,0.5-2c1.2-2.5,4.3-4.3,7.8-4.3c0,0,0.1,0,0.1,0c-0.3-0.5-0.4-1-0.4-1.6
		c0-0.3,0-0.5,0.1-0.8c-3.7-0.1-6.4-2.8-6.4-6.3c0-2.5,2-4.9,4.8-5.9c0.9-0.3,1.7-0.4,2.6-0.4h7.8c0.3,0,0.5,0.2,0.6,0.4
		c0.1,0.3,0,0.5-0.2,0.7l-1.7,1.3c-0.1,0.1-0.2,0.1-0.4,0.1h-0.6c0.8,1,1.3,2.3,1.3,3.9c0,1.7-0.9,3.3-2.4,4.6
		c-1.2,0.9-1.3,1.2-1.3,1.8c0,0.3,0.9,1.3,1.8,1.9c2.2,1.5,3,3.1,3,5.6C-301.1,311.3-303.1,313.6-306.2,314.5z M-288.6,301.1
		c0,0.3-0.3,0.6-0.6,0.6h-4.4v4.4c0,0.3-0.3,0.6-0.6,0.6h-1.3c-0.3,0-0.6-0.3-0.6-0.6v-4.4h-4.4c-0.3,0-0.6-0.3-0.6-0.6v-1.3
		c0-0.3,0.3-0.6,0.6-0.6h4.4v-4.4c0-0.3,0.3-0.6,0.6-0.6h1.3c0.3,0,0.6,0.3,0.6,0.6v4.4h4.4c0.3,0,0.6,0.3,0.6,0.6L-288.6,301.1
		L-288.6,301.1L-288.6,301.1z"/>
</g>
</svg>
