<?xml version="1.0" encoding="utf-8"?>
<!-- Generator: Adobe Illustrator 19.0.0, SVG Export Plug-In . SVG Version: 6.00 Build 0)  -->
<svg version="1.1" id="Capa_1" xmlns="http://www.w3.org/2000/svg" xmlns:xlink="http://www.w3.org/1999/xlink" x="0px" y="0px"
	 viewBox="-752 393.9 54 54" style="enable-background:new -752 393.9 54 54;" xml:space="preserve">
<style type="text/css">
	.st0{fill:#9EA3A8;}
	.st1{fill:#00B9EB;}
</style>
<g>
</g>
<g>
	<path class="st0" d="M-724.9,410.9c-5.5,0-10,4.5-10,10s4.5,10,10,10s10-4.5,10-10S-719.4,410.9-724.9,410.9z M-724.9,428.9
		c-4.4,0-8-3.6-8-8s3.6-8,8-8s8,3.6,8,8S-720.5,428.9-724.9,428.9z"/>
</g>
<g>
	<g>
		<path class="st1" d="M-700.7,416.9h-3.6l-0.2-0.8c-0.5-2.2-1.4-4.4-2.6-6.3l-0.4-0.7l2.5-2.5c0.3-0.3,0.3-0.8,0-1.1l-4.6-4.6
			c-0.3-0.3-0.8-0.3-1.1,0l-2.5,2.5l-0.7-0.4c-2-1.2-4.1-2.1-6.3-2.6l-0.8-0.2v-3.6c0-0.4-0.3-0.8-0.8-0.8h-6.4
			c-0.4,0-0.8,0.3-0.8,0.8v3.6l-0.8,0.2c-2.2,0.5-4.4,1.4-6.3,2.6l-0.7,0.4l-2.5-2.5c-0.3-0.3-0.8-0.3-1.1,0l-4.6,4.6
			c-0.3,0.3-0.3,0.8,0,1.1l2.5,2.5l-0.4,0.7c-1.2,2-2.1,4.1-2.6,6.3l-0.2,0.8h-3.6c-0.4,0-0.8,0.3-0.8,0.8v6.4
			c0,0.4,0.3,0.8,0.8,0.8h3.6l0.2,0.8c0.5,2.2,1.4,4.4,2.6,6.3l0.4,0.7l-2.5,2.5c-0.3,0.3-0.3,0.8,0,1.1l4.6,4.6
			c0.3,0.3,0.8,0.3,1.1,0l2.5-2.5l0.7,0.4c2,1.2,4.1,2.1,6.3,2.6l0.8,0.2v3.6c0,0.4,0.3,0.8,0.8,0.8h6.4c0.4,0,0.8-0.4,0.8-0.8v-3.6
			l0.8-0.2c2.2-0.5,4.4-1.4,6.3-2.6l0.7-0.4l2.5,2.5c0.3,0.3,0.8,0.3,1.1,0l4.6-4.6c0.3-0.3,0.3-0.8,0-1.1l-2.5-2.5l0.4-0.7
			c1.2-2,2.1-4.1,2.6-6.3l0.2-0.8h3.6c0.4,0,0.8-0.4,0.8-0.8v-6.4C-699.9,417.2-700.2,416.9-700.7,416.9z M-724.9,434.6
			c-7.6,0-13.8-6.2-13.8-13.8c0-7.6,6.2-13.8,13.8-13.8s13.8,6.2,13.8,13.8C-711.2,428.5-717.3,434.6-724.9,434.6z"/>
	</g>
	<g>
		<path class="st0" d="M-700.7,416.9h-3.6l-0.2-0.8c-0.5-2.2-1.4-4.4-2.6-6.3l-0.4-0.7l2.5-2.5c0.3-0.3,0.3-0.8,0-1.1l-4.6-4.6
			c-0.3-0.3-0.8-0.3-1.1,0l-2.5,2.5l-0.7-0.4c-2-1.2-4.1-2.1-6.3-2.6l-0.8-0.2v-3.6c0-0.4-0.3-0.8-0.8-0.8h-6.4
			c-0.4,0-0.8,0.3-0.8,0.8v3.6l-0.8,0.2c-2.2,0.5-4.4,1.4-6.3,2.6l-0.7,0.4l-2.5-2.5c-0.3-0.3-0.8-0.3-1.1,0l-4.6,4.6
			c-0.3,0.3-0.3,0.8,0,1.1l2.5,2.5l-0.4,0.7c-1.2,2-2.1,4.1-2.6,6.3l-0.2,0.8h-3.6c-0.4,0-0.8,0.3-0.8,0.8v6.4
			c0,0.4,0.3,0.8,0.8,0.8h3.6l0.2,0.8c0.5,2.2,1.4,4.4,2.6,6.3l0.4,0.7l-2.5,2.5c-0.3,0.3-0.3,0.8,0,1.1l4.6,4.6
			c0.3,0.3,0.8,0.3,1.1,0l2.5-2.5l0.7,0.4c2,1.2,4.1,2.1,6.3,2.6l0.8,0.2v3.6c0,0.4,0.3,0.8,0.8,0.8h6.4c0.4,0,0.8-0.4,0.8-0.8v-3.6
			l0.8-0.2c2.2-0.5,4.4-1.4,6.3-2.6l0.7-0.4l2.5,2.5c0.3,0.3,0.8,0.3,1.1,0l4.6-4.6c0.3-0.3,0.3-0.8,0-1.1l-2.5-2.5l0.4-0.7
			c1.2-2,2.1-4.1,2.6-6.3l0.2-0.8h3.6c0.4,0,0.8-0.4,0.8-0.8v-6.4C-699.9,417.2-700.2,416.9-700.7,416.9z M-724.9,434.6
			c-7.6,0-13.8-6.2-13.8-13.8c0-7.6,6.2-13.8,13.8-13.8s13.8,6.2,13.8,13.8C-711.2,428.5-717.3,434.6-724.9,434.6z"/>
	</g>
</g>
</svg>
